<svg width="16" height="16" viewBox="0 0 16 16" fill="none" xmlns="http://www.w3.org/2000/svg">
<path d="M6.00016 14.6667H10.0002C13.3335 14.6667 14.6668 13.3333 14.6668 10V6.00001C14.6668 2.66668 13.3335 1.33334 10.0002 1.33334H6.00016C2.66683 1.33334 1.3335 2.66668 1.3335 6.00001V10C1.3335 13.3333 2.66683 14.6667 6.00016 14.6667Z" stroke="#C6CBD9" stroke-width="1.5" stroke-linecap="round" stroke-linejoin="round"/>
<path d="M6.06689 7.99999V7.01333C6.06689 5.73999 6.96689 5.22666 8.06689 5.85999L8.92023 6.35333L9.77356 6.84666C10.8736 7.47999 10.8736 8.51999 9.77356 9.15333L8.92023 9.64666L8.06689 10.14C6.96689 10.7733 6.06689 10.2533 6.06689 8.98666V7.99999Z" stroke="#C6CBD9" stroke-width="1.5" stroke-miterlimit="10" stroke-linecap="round" stroke-linejoin="round"/>
</svg>
