<svg width="113" height="30" viewBox="0 0 113 30" fill="none" xmlns="http://www.w3.org/2000/svg">
<path d="M47.1584 13.1158H44.1399C44.0997 12.8059 44.0172 12.5262 43.8924 12.2766C43.7676 12.0271 43.6026 11.8138 43.3974 11.6367C43.1921 11.4596 42.9486 11.3248 42.6669 11.2322C42.3892 11.1357 42.0813 11.0874 41.7433 11.0874C41.1436 11.0874 40.6264 11.2343 40.1918 11.5281C39.7611 11.8219 39.4291 12.2464 39.1957 12.8018C38.9663 13.3572 38.8516 14.0294 38.8516 14.8182C38.8516 15.6392 38.9683 16.3274 39.2017 16.8828C39.4392 17.4342 39.7712 17.8507 40.1978 18.1325C40.6284 18.4102 41.1375 18.549 41.7251 18.549C42.0552 18.549 42.355 18.5067 42.6246 18.4222C42.8983 18.3377 43.1378 18.215 43.343 18.054C43.5523 17.889 43.7234 17.6897 43.8562 17.4563C43.993 17.2189 44.0876 16.9512 44.1399 16.6534L47.1584 16.6715C47.1061 17.2189 46.9471 17.7582 46.6815 18.2894C46.4199 18.8207 46.0597 19.3056 45.6009 19.7443C45.142 20.179 44.5826 20.5251 43.9226 20.7827C43.2666 21.0402 42.514 21.169 41.6648 21.169C40.5459 21.169 39.5438 20.9235 38.6584 20.4325C37.777 19.9375 37.0807 19.2171 36.5696 18.2713C36.0585 17.3255 35.8029 16.1745 35.8029 14.8182C35.8029 13.4579 36.0625 12.3048 36.5817 11.359C37.1009 10.4132 37.8031 9.69484 38.6886 9.20383C39.574 8.71283 40.5661 8.46733 41.6648 8.46733C42.4134 8.46733 43.1056 8.57197 43.7415 8.78125C44.3774 8.98651 44.9368 9.28835 45.4197 9.68679C45.9027 10.0812 46.2951 10.5662 46.5969 11.1417C46.8988 11.7172 47.0859 12.3752 47.1584 13.1158ZM48.8683 8.63636H52.569L55.7082 16.2912H55.8531L58.9923 8.63636H62.6929V21H59.7831V13.4055H59.6805L56.7103 20.9215H54.8509L51.8808 13.3633H51.7781V21H48.8683V8.63636ZM71.2397 12.343C71.1995 11.9003 71.0204 11.5562 70.7024 11.3107C70.3885 11.0612 69.9397 10.9364 69.3562 10.9364C68.9698 10.9364 68.6478 10.9867 68.3903 11.0874C68.1327 11.188 67.9395 11.3268 67.8107 11.5039C67.6819 11.677 67.6155 11.8762 67.6115 12.1016C67.6035 12.2867 67.6397 12.4497 67.7202 12.5906C67.8047 12.7314 67.9254 12.8562 68.0824 12.9648C68.2434 13.0695 68.4366 13.162 68.6619 13.2425C68.8873 13.323 69.1409 13.3935 69.4226 13.4538L70.4851 13.6953C71.0968 13.8281 71.6361 14.0052 72.103 14.2266C72.5739 14.4479 72.9683 14.7115 73.2862 15.0174C73.6082 15.3233 73.8517 15.6754 74.0167 16.0739C74.1817 16.4723 74.2662 16.919 74.2702 17.4141C74.2662 18.1948 74.069 18.8649 73.6786 19.4244C73.2882 19.9838 72.7268 20.4124 71.9943 20.7102C71.2659 21.008 70.3865 21.157 69.3562 21.157C68.3219 21.157 67.4203 21.002 66.6516 20.6921C65.8829 20.3822 65.2853 19.9113 64.8587 19.2795C64.4321 18.6476 64.2127 17.8487 64.2006 16.8828H67.0621C67.0863 17.2812 67.1929 17.6133 67.3821 17.8789C67.5713 18.1445 67.8308 18.3458 68.1609 18.4826C68.4949 18.6194 68.8813 18.6879 69.32 18.6879C69.7224 18.6879 70.0645 18.6335 70.3462 18.5249C70.632 18.4162 70.8513 18.2653 71.0043 18.0721C71.1572 17.8789 71.2357 17.6576 71.2397 17.408C71.2357 17.1746 71.1632 16.9754 71.0224 16.8104C70.8815 16.6413 70.6642 16.4964 70.3704 16.3757C70.0806 16.2509 69.7103 16.1362 69.2596 16.0316L67.9677 15.7298C66.8971 15.4843 66.054 15.0878 65.4382 14.5405C64.8224 13.9891 64.5166 13.2446 64.5206 12.3068C64.5166 11.5421 64.7218 10.872 65.1364 10.2965C65.5509 9.721 66.1244 9.27225 66.8569 8.95028C67.5894 8.62831 68.4245 8.46733 69.3622 8.46733C70.3201 8.46733 71.1512 8.63033 71.8555 8.95632C72.5638 9.27829 73.1132 9.73106 73.5036 10.3146C73.8939 10.8982 74.0932 11.5743 74.1012 12.343H71.2397Z" fill="#9A9AAF"/>
<path fill-rule="evenodd" clip-rule="evenodd" d="M14 25C20.0751 25 25 20.0751 25 14C25 7.92487 20.0751 3 14 3C7.92487 3 3 7.92487 3 14C3 20.0751 7.92487 25 14 25ZM6.72217 18.9419H8.29102C8.30762 18.953 8.33529 18.964 8.37402 18.9751L8.49023 19.0083C8.53451 19.0249 8.57324 19.036 8.60645 19.0415C8.64518 19.0526 8.67008 19.0581 8.68115 19.0581C8.68669 19.0581 8.70052 19.0553 8.72266 19.0498C8.75033 19.0443 8.77523 19.036 8.79736 19.0249C8.82503 19.0194 8.84994 19.0138 8.87207 19.0083C8.89974 19.0028 8.91634 19 8.92188 19H9.1377C9.37012 19 9.60254 19.0083 9.83496 19.0249C10.0674 19.047 10.2998 19.0581 10.5322 19.0581C10.5876 19.0581 10.6457 19.0553 10.7065 19.0498C10.7674 19.0443 10.8228 19.0304 10.8726 19.0083C10.9224 18.9862 10.9639 18.953 10.9971 18.9087C11.0303 18.8644 11.0469 18.8035 11.0469 18.7261C11.0469 18.6707 11.0358 18.6265 11.0137 18.5933C10.9971 18.5601 10.9722 18.5352 10.939 18.5186C10.9058 18.502 10.867 18.4881 10.8228 18.4771C10.7785 18.466 10.7342 18.4494 10.6899 18.4272C10.6789 18.4162 10.6512 18.3968 10.6069 18.3691C10.5682 18.3359 10.5433 18.311 10.5322 18.2944C10.4105 18.2446 10.2638 18.2087 10.0923 18.1865C9.92627 18.1644 9.78516 18.1478 9.66895 18.1367C9.62467 18.1035 9.5887 18.062 9.56104 18.0122C9.5389 17.9569 9.51953 17.8988 9.50293 17.8379L9.45312 17.6553C9.43652 17.5944 9.41439 17.5391 9.38672 17.4893V16.2441C9.35905 16.1833 9.33968 16.1362 9.32861 16.103C9.31755 16.0643 9.31201 16.02 9.31201 15.9702V15.8872C9.31755 15.8761 9.32585 15.8512 9.33691 15.8125C9.35352 15.7682 9.36735 15.724 9.37842 15.6797C9.39502 15.6354 9.40885 15.5939 9.41992 15.5552C9.43099 15.5164 9.43652 15.4915 9.43652 15.4805V14.6172C9.43652 14.6117 9.43929 14.5978 9.44482 14.5757C9.45036 14.548 9.45589 14.5231 9.46143 14.501C9.47249 14.4733 9.48079 14.4484 9.48633 14.4263L9.49463 14.3931C9.49463 14.2049 9.47249 14.0223 9.42822 13.8452C9.38949 13.6681 9.37012 13.4855 9.37012 13.2974C9.37012 13.1535 9.38395 13.0151 9.41162 12.8823L9.49463 12.4839V12.4341C9.49463 12.3621 9.48356 12.2957 9.46143 12.2349C9.44482 12.174 9.43652 12.1131 9.43652 12.0522V11.9609L9.44482 11.9277C9.45036 11.9001 9.45589 11.8752 9.46143 11.853C9.47249 11.8254 9.48079 11.8005 9.48633 11.7783L9.49463 11.7368C9.50016 11.6317 9.50293 11.5376 9.50293 11.4546C9.50846 11.366 9.514 11.283 9.51953 11.2056L9.53613 10.9565C9.5472 10.8735 9.56657 10.7822 9.59424 10.6826H9.64404C9.75472 10.6826 9.84049 10.7131 9.90137 10.7739C9.96777 10.8348 10.0203 10.9095 10.0591 10.998C10.1034 11.0866 10.1421 11.1779 10.1753 11.272C10.2085 11.3605 10.25 11.438 10.2998 11.5044L10.4741 11.6787C10.4852 11.6953 10.499 11.7202 10.5156 11.7534C10.5322 11.7811 10.5488 11.8143 10.5654 11.853C10.582 11.8862 10.5959 11.9194 10.6069 11.9526C10.6235 11.9803 10.6374 12.0024 10.6484 12.019C10.6484 12.0301 10.6512 12.055 10.6567 12.0938C10.6623 12.1325 10.6678 12.174 10.6733 12.2183C10.6789 12.2625 10.6816 12.3068 10.6816 12.3511C10.6872 12.3898 10.6899 12.4175 10.6899 12.4341C10.6955 12.4396 10.7038 12.4562 10.7148 12.4839C10.7314 12.506 10.7453 12.5337 10.7563 12.5669C10.7729 12.6001 10.7868 12.6333 10.7979 12.6665C10.8089 12.6942 10.8172 12.7135 10.8228 12.7246C10.8228 12.7357 10.8311 12.7633 10.8477 12.8076C10.8643 12.8464 10.8726 12.8713 10.8726 12.8823C10.8836 12.8934 10.9058 12.9238 10.939 12.9736C10.9722 13.0179 10.9943 13.0456 11.0054 13.0566V13.123C11.0109 13.1562 11.0137 13.1922 11.0137 13.231C11.0192 13.2697 11.0247 13.3057 11.0303 13.3389C11.0358 13.3721 11.0413 13.3914 11.0469 13.397C11.141 13.6903 11.2544 13.9725 11.3872 14.2437C11.52 14.5148 11.6362 14.7887 11.7358 15.0654C11.8133 15.2646 11.877 15.4556 11.9268 15.6382C11.9766 15.8153 12.0513 15.9924 12.1509 16.1694C12.1564 16.1805 12.173 16.2109 12.2007 16.2607C12.2284 16.3105 12.2588 16.3659 12.292 16.4268C12.3252 16.4821 12.3556 16.5374 12.3833 16.5928C12.4165 16.6426 12.4359 16.673 12.4414 16.6841C12.4857 16.7837 12.5189 16.875 12.541 16.958C12.5687 17.041 12.5908 17.124 12.6074 17.207C12.624 17.2845 12.6406 17.3647 12.6572 17.4478C12.6794 17.5308 12.7043 17.6221 12.7319 17.7217C12.743 17.7881 12.7679 17.8711 12.8066 17.9707C12.8509 18.0703 12.9007 18.1672 12.9561 18.2612C13.0169 18.3553 13.0833 18.4383 13.1553 18.5103C13.2272 18.5767 13.2992 18.6099 13.3711 18.6099C13.4486 18.6099 13.5177 18.5877 13.5786 18.5435C13.6395 18.4992 13.7004 18.4604 13.7612 18.4272C13.7778 18.4051 13.8 18.3608 13.8276 18.2944C13.8608 18.228 13.8968 18.1589 13.9355 18.0869C13.9743 18.0094 14.0075 17.9375 14.0352 17.8711C14.0684 17.7992 14.0933 17.7493 14.1099 17.7217C14.1099 17.7106 14.1182 17.6774 14.1348 17.6221C14.1569 17.5612 14.168 17.5169 14.168 17.4893C14.168 17.4837 14.1707 17.4616 14.1763 17.4229C14.1818 17.3841 14.1873 17.3426 14.1929 17.2983C14.1984 17.2541 14.2012 17.2126 14.2012 17.1738C14.2067 17.1351 14.2095 17.113 14.2095 17.1074C14.2205 17.0908 14.2399 17.0549 14.2676 16.9995C14.3008 16.9386 14.3312 16.875 14.3589 16.8086L14.4502 16.626C14.4779 16.5706 14.4917 16.5374 14.4917 16.5264C14.4972 16.5153 14.5111 16.4849 14.5332 16.4351C14.5553 16.3853 14.5775 16.3299 14.5996 16.269C14.6273 16.2026 14.6522 16.1418 14.6743 16.0864C14.702 16.0256 14.7241 15.9813 14.7407 15.9536C14.7905 15.8097 14.8265 15.6631 14.8486 15.5137C14.8708 15.3587 14.9095 15.2093 14.9648 15.0654C14.9759 15.0544 14.998 15.0295 15.0312 14.9907C15.0645 14.9465 15.0866 14.9188 15.0977 14.9077C15.0977 14.8966 15.1032 14.869 15.1143 14.8247C15.1253 14.7804 15.1336 14.75 15.1392 14.7334C15.1558 14.7002 15.1696 14.6449 15.1807 14.5674C15.1917 14.4844 15.2166 14.4263 15.2554 14.3931C15.2609 14.382 15.2803 14.3599 15.3135 14.3267C15.3522 14.2879 15.391 14.252 15.4297 14.2188L15.5376 14.1108L15.604 14.0444C15.604 14.0389 15.6068 14.0223 15.6123 13.9946L15.6289 13.895C15.6344 13.8618 15.64 13.8314 15.6455 13.8037C15.6566 13.7705 15.6649 13.7511 15.6704 13.7456C15.687 13.6847 15.7147 13.6377 15.7534 13.6045C15.7977 13.5713 15.8226 13.5215 15.8281 13.4551C15.8724 13.3057 15.9084 13.1535 15.936 12.9985C15.9692 12.8381 16.0107 12.6859 16.0605 12.542C16.127 12.387 16.2044 12.2432 16.293 12.1104C16.387 11.972 16.4673 11.8281 16.5337 11.6787C16.5337 11.6621 16.5392 11.64 16.5503 11.6123C16.5669 11.5846 16.5752 11.5625 16.5752 11.5459C16.5863 11.5404 16.6056 11.5265 16.6333 11.5044C16.6665 11.4767 16.6997 11.4463 16.7329 11.4131C16.7661 11.3799 16.7938 11.3494 16.8159 11.3218C16.8436 11.2941 16.8602 11.2747 16.8657 11.2637C16.8934 11.236 16.9155 11.2028 16.9321 11.1641C16.9543 11.1253 16.9764 11.0894 16.9985 11.0562C17.0207 11.0229 17.0456 10.9953 17.0732 10.9731C17.1064 10.9455 17.1479 10.9316 17.1978 10.9316C17.2199 10.9316 17.242 10.9538 17.2642 10.998C17.2918 11.0368 17.314 11.0838 17.3306 11.1392C17.3527 11.189 17.3693 11.2388 17.3804 11.2886C17.3914 11.3384 17.397 11.3716 17.397 11.3882C17.4025 11.438 17.4053 11.5182 17.4053 11.6289C17.4108 11.7396 17.4163 11.8558 17.4219 11.9775C17.4274 12.0993 17.4302 12.2155 17.4302 12.3262C17.4357 12.4313 17.4385 12.5033 17.4385 12.542V12.7495C17.444 12.8768 17.4495 13.0234 17.4551 13.1895C17.4606 13.3555 17.4634 13.5243 17.4634 13.6958C17.4689 13.8618 17.4717 13.9974 17.4717 14.1025C17.4717 14.1634 17.4689 14.2658 17.4634 14.4097C17.4634 14.5535 17.4606 14.7085 17.4551 14.8745C17.4495 15.035 17.444 15.1899 17.4385 15.3394V15.6382C17.3942 16.0034 17.3582 16.3631 17.3306 16.7173C17.3084 17.0715 17.2669 17.4256 17.2061 17.7798C17.2061 17.8351 17.2033 17.9043 17.1978 17.9873C17.1922 18.0648 17.1784 18.145 17.1562 18.228C17.1396 18.3055 17.112 18.3802 17.0732 18.4521C17.04 18.5186 16.9902 18.5628 16.9238 18.585C16.9183 18.5905 16.9017 18.5988 16.874 18.6099C16.8519 18.6154 16.8242 18.6209 16.791 18.6265L16.6914 18.6431C16.6637 18.6486 16.6444 18.6514 16.6333 18.6514C16.6222 18.6514 16.5946 18.6624 16.5503 18.6846C16.5116 18.7012 16.4867 18.7095 16.4756 18.7095C16.4368 18.7095 16.3677 18.7205 16.2681 18.7427C16.1685 18.7593 16.0993 18.7676 16.0605 18.7676V18.8257C16.0605 18.9032 16.0993 18.9779 16.1768 19.0498C16.2542 19.1217 16.3289 19.1577 16.4009 19.1577H16.5337H16.9902C16.9958 19.1577 17.0124 19.1522 17.04 19.1411C17.0677 19.13 17.0981 19.119 17.1313 19.1079C17.1646 19.0968 17.195 19.0858 17.2227 19.0747C17.2559 19.0636 17.2752 19.0581 17.2808 19.0581H17.3389H17.397C17.408 19.0581 17.4412 19.047 17.4966 19.0249C17.5575 19.0083 17.6017 19 17.6294 19H20.3853C20.4793 19 20.5623 18.9723 20.6343 18.917C20.7062 18.8561 20.7422 18.7869 20.7422 18.7095C20.7422 18.7039 20.7394 18.6846 20.7339 18.6514C20.7284 18.6182 20.7256 18.596 20.7256 18.585C20.7201 18.5794 20.7007 18.5684 20.6675 18.5518C20.6398 18.5352 20.6066 18.5186 20.5679 18.502C20.5291 18.4854 20.4932 18.4715 20.46 18.4604C20.4268 18.4438 20.4019 18.4328 20.3853 18.4272C20.3742 18.4217 20.3521 18.4162 20.3188 18.4106C20.2856 18.4051 20.2497 18.3996 20.2109 18.394C20.1777 18.383 20.1445 18.3747 20.1113 18.3691C20.0781 18.3636 20.0588 18.3581 20.0532 18.3525C20.0422 18.3525 20.02 18.347 19.9868 18.3359C19.9536 18.3249 19.9176 18.3138 19.8789 18.3027L19.7627 18.2695C19.7295 18.2585 19.7101 18.2529 19.7046 18.2529H19.4805C19.4639 18.2529 19.45 18.2474 19.439 18.2363C19.4279 18.2197 19.4168 18.2059 19.4058 18.1948C19.4058 18.1838 19.3975 18.1616 19.3809 18.1284C19.3698 18.0952 19.3587 18.0758 19.3477 18.0703L19.3062 18.0288C19.284 18.0011 19.2591 17.9707 19.2314 17.9375C19.2093 17.9043 19.1844 17.8739 19.1567 17.8462C19.1346 17.813 19.1208 17.7909 19.1152 17.7798C19.1042 17.7632 19.082 17.7244 19.0488 17.6636C19.0212 17.6027 19.0073 17.564 19.0073 17.5474V17.4644V17.3315C19.0073 17.3094 19.0156 17.2679 19.0322 17.207C19.0544 17.1462 19.0654 17.113 19.0654 17.1074V17.041V16.8999C19.071 16.8446 19.0737 16.7892 19.0737 16.7339V16.6011V16.5098C19.0737 16.46 19.071 16.4102 19.0654 16.3604V16.2109V16.1113C19.0378 16.0671 19.0212 16.0283 19.0156 15.9951C19.0101 15.9564 19.0073 15.9149 19.0073 15.8706V15.771C19.0073 15.6271 19.0267 15.4943 19.0654 15.3726C19.1097 15.2453 19.1318 15.1097 19.1318 14.9658C19.1318 14.8164 19.118 14.6615 19.0903 14.501C19.0627 14.3405 19.035 14.1883 19.0073 14.0444V14.0195V13.978C19.0073 13.967 19.0156 13.9393 19.0322 13.895C19.0544 13.8507 19.0654 13.8231 19.0654 13.812C19.0544 13.3029 19.0627 12.7993 19.0903 12.3013C19.118 11.7977 19.1318 11.2913 19.1318 10.7822C19.1318 10.7601 19.1291 10.7186 19.1235 10.6577V10.4585C19.1235 10.3866 19.1208 10.3174 19.1152 10.251V10.1099C19.1042 10.049 19.0903 9.99919 19.0737 9.96045L19.0405 9.84424C19.0295 9.8055 19.0212 9.76676 19.0156 9.72803C19.0101 9.68376 19.0073 9.62842 19.0073 9.56201V9.4209V9.18018C19.0129 9.09163 19.0239 9.00863 19.0405 8.93115C19.0627 8.84814 19.0931 8.77344 19.1318 8.70703C19.1706 8.64062 19.2231 8.59082 19.2896 8.55762C19.4002 8.50781 19.5026 8.47738 19.5967 8.46631C19.6908 8.44971 19.7848 8.44141 19.8789 8.44141C19.973 8.44141 20.0615 8.45247 20.1445 8.47461C20.2275 8.49121 20.3161 8.49951 20.4102 8.49951C20.4378 8.49951 20.4766 8.48568 20.5264 8.45801C20.5762 8.4248 20.626 8.38607 20.6758 8.3418C20.7256 8.29753 20.7671 8.25049 20.8003 8.20068C20.839 8.15088 20.8584 8.10384 20.8584 8.05957C20.8584 7.98763 20.8363 7.92122 20.792 7.86035C20.7477 7.79395 20.6924 7.73584 20.626 7.68604C20.5596 7.63623 20.4876 7.59749 20.4102 7.56982C20.3382 7.54215 20.2718 7.52832 20.2109 7.52832H20.1362C20.0975 7.52279 20.0505 7.52002 19.9951 7.52002H19.8374C19.7821 7.51449 19.7378 7.51172 19.7046 7.51172C19.5054 7.51172 19.3255 7.52279 19.165 7.54492C19.0046 7.56706 18.8358 7.60026 18.6587 7.64453C18.6532 7.64453 18.6338 7.65006 18.6006 7.66113C18.5674 7.6722 18.5286 7.68604 18.4844 7.70264L18.3682 7.73584C18.335 7.74137 18.3128 7.74414 18.3018 7.74414C18.2796 7.74967 18.2132 7.75244 18.1025 7.75244H17.7705C17.6598 7.74691 17.5934 7.74414 17.5713 7.74414C17.4661 7.76074 17.3748 7.79118 17.2974 7.83545C17.2199 7.87972 17.1535 7.93506 17.0981 8.00146C17.0428 8.06234 16.993 8.13151 16.9487 8.20898C16.9045 8.28646 16.863 8.36393 16.8242 8.44141V8.49121V8.49951C16.8242 8.51058 16.8298 8.53271 16.8408 8.56592C16.8574 8.59359 16.8657 8.61572 16.8657 8.63232V8.64893V8.67383C16.8657 8.69043 16.8602 8.72087 16.8491 8.76514C16.8381 8.80387 16.8298 8.83154 16.8242 8.84814C16.8132 8.87581 16.7855 8.93392 16.7412 9.02246C16.7025 9.111 16.661 9.20785 16.6167 9.31299C16.5724 9.41813 16.5282 9.51774 16.4839 9.61182C16.4451 9.70036 16.4175 9.7557 16.4009 9.77783C16.3677 9.87191 16.3428 9.97705 16.3262 10.0933C16.3151 10.2039 16.2874 10.3063 16.2432 10.4004C16.1436 10.6383 16.0329 10.8625 15.9111 11.0728C15.7894 11.2775 15.687 11.4989 15.604 11.7368C15.5929 11.759 15.5846 11.7922 15.5791 11.8364C15.5736 11.8752 15.5653 11.9167 15.5542 11.9609C15.5487 12.0052 15.5404 12.0495 15.5293 12.0938C15.5182 12.138 15.5044 12.1712 15.4878 12.1934C15.4823 12.1989 15.4684 12.2155 15.4463 12.2432C15.4242 12.2708 15.3993 12.3013 15.3716 12.3345C15.3439 12.3677 15.319 12.4009 15.2969 12.4341C15.2747 12.4618 15.2609 12.4784 15.2554 12.4839C15.1945 12.5835 15.1475 12.6886 15.1143 12.7993C15.0811 12.9045 15.0312 13.0096 14.9648 13.1147C14.915 13.2033 14.8652 13.2835 14.8154 13.3555C14.7712 13.4219 14.7297 13.491 14.6909 13.563C14.6522 13.6294 14.6162 13.7013 14.583 13.7788C14.5498 13.8507 14.5194 13.9393 14.4917 14.0444C14.4917 14.061 14.4889 14.0804 14.4834 14.1025C14.4779 14.1247 14.4723 14.1496 14.4668 14.1772L14.4502 14.2603C14.4004 14.3709 14.3257 14.4678 14.2261 14.5508C14.132 14.6283 14.0545 14.703 13.9937 14.7749C13.9715 14.8026 13.9521 14.8358 13.9355 14.8745C13.9245 14.9077 13.9106 14.9409 13.894 14.9741C13.883 15.0073 13.8664 15.035 13.8442 15.0571C13.8221 15.0793 13.7944 15.0903 13.7612 15.0903C13.717 15.0903 13.6727 15.0737 13.6284 15.0405C13.5841 15.0018 13.5426 14.9575 13.5039 14.9077C13.4707 14.8579 13.4403 14.8081 13.4126 14.7583C13.3849 14.703 13.3628 14.6559 13.3462 14.6172C13.3407 14.5951 13.3324 14.5646 13.3213 14.5259C13.3102 14.4871 13.2992 14.4512 13.2881 14.418C13.277 14.3792 13.266 14.346 13.2549 14.3184C13.2493 14.2852 13.2466 14.2658 13.2466 14.2603C13.2466 14.2492 13.2549 14.2132 13.2715 14.1523C13.2936 14.0915 13.3047 14.0555 13.3047 14.0444V13.9033C13.3047 13.8314 13.2826 13.776 13.2383 13.7373C13.1995 13.6986 13.1525 13.6654 13.0972 13.6377C13.0418 13.6045 12.9893 13.5741 12.9395 13.5464C12.8896 13.5132 12.8537 13.4634 12.8315 13.397C12.8315 13.3859 12.8205 13.3499 12.7983 13.2891C12.7817 13.2227 12.7734 13.1839 12.7734 13.1729C12.7734 13.1618 12.7707 13.1369 12.7651 13.0981C12.7651 13.0539 12.7624 13.0096 12.7568 12.9653C12.7513 12.9211 12.7458 12.8796 12.7402 12.8408C12.7347 12.8021 12.7319 12.7772 12.7319 12.7661C12.6545 12.578 12.5687 12.4175 12.4746 12.2847C12.3861 12.1463 12.3141 11.9831 12.2588 11.7949C12.2588 11.7839 12.256 11.759 12.2505 11.7202C12.2505 11.6759 12.2477 11.6317 12.2422 11.5874C12.2367 11.5431 12.2284 11.5016 12.2173 11.4629C12.2118 11.4242 12.2062 11.3993 12.2007 11.3882C12.1951 11.3826 12.1813 11.366 12.1592 11.3384C12.137 11.3107 12.1121 11.283 12.0845 11.2554C12.0568 11.2222 12.0319 11.1917 12.0098 11.1641C11.9876 11.1364 11.9738 11.117 11.9683 11.106C11.9683 11.0949 11.9572 11.0562 11.9351 10.9897C11.9185 10.9233 11.9102 10.8846 11.9102 10.8735C11.888 10.8071 11.8493 10.7241 11.7939 10.6245C11.7441 10.5249 11.7054 10.4364 11.6777 10.3589C11.6777 10.3423 11.675 10.3091 11.6694 10.2593C11.6639 10.2039 11.6556 10.1486 11.6445 10.0933C11.639 10.0324 11.6335 9.97705 11.6279 9.92725C11.6224 9.87191 11.6196 9.8387 11.6196 9.82764C11.5975 9.69482 11.5477 9.57861 11.4702 9.479C11.3983 9.37386 11.3402 9.26318 11.2959 9.14697C11.2793 9.12484 11.2655 9.08333 11.2544 9.02246C11.2433 8.96159 11.2323 8.92839 11.2212 8.92285C11.2212 8.91178 11.2129 8.89518 11.1963 8.87305C11.1852 8.84538 11.1686 8.82048 11.1465 8.79834C11.1243 8.77067 11.1022 8.74577 11.0801 8.72363C11.0635 8.7015 11.0524 8.6849 11.0469 8.67383C10.9362 8.51335 10.82 8.36947 10.6982 8.24219C10.582 8.10938 10.4299 8.00423 10.2417 7.92676H9.02148L8.97998 7.91846C8.95231 7.91292 8.92188 7.90739 8.88867 7.90186C8.861 7.89079 8.83057 7.88249 8.79736 7.87695C8.76969 7.87142 8.75033 7.86865 8.73926 7.86865H8.21631H7.77637C7.75977 7.86865 7.72656 7.87419 7.67676 7.88525C7.62695 7.89632 7.57161 7.91016 7.51074 7.92676C7.44987 7.94336 7.39453 7.95719 7.34473 7.96826C7.29492 7.97933 7.26172 7.98486 7.24512 7.98486H7.0708C7.05973 7.99593 7.0376 8.0153 7.00439 8.04297C6.97119 8.0651 6.95459 8.08447 6.95459 8.10107C6.99886 8.23389 7.04867 8.3335 7.104 8.3999C7.15934 8.46077 7.22298 8.50505 7.29492 8.53271C7.3724 8.56038 7.45817 8.58252 7.55225 8.59912C7.64632 8.61572 7.75423 8.64062 7.87598 8.67383C7.88704 8.67383 7.90918 8.67936 7.94238 8.69043C7.97559 8.7015 8.00879 8.71533 8.04199 8.73193C8.08073 8.74854 8.1167 8.76237 8.1499 8.77344C8.18311 8.78451 8.20524 8.79004 8.21631 8.79004C8.32145 8.80111 8.4349 8.80941 8.55664 8.81494C8.68392 8.82048 8.7863 8.87028 8.86377 8.96436C8.8693 8.99202 8.87484 9.03353 8.88037 9.08887C8.8859 9.13867 8.89144 9.19401 8.89697 9.25488C8.90251 9.31576 8.90804 9.37386 8.91357 9.4292C8.91911 9.479 8.92188 9.51497 8.92188 9.53711C8.92188 9.54264 8.91911 9.56201 8.91357 9.59521C8.90804 9.62288 8.90251 9.65609 8.89697 9.69482C8.89144 9.72803 8.8859 9.764 8.88037 9.80273C8.87484 9.83594 8.8693 9.86084 8.86377 9.87744C8.85824 9.88851 8.8444 9.91895 8.82227 9.96875C8.80566 10.0186 8.79736 10.0518 8.79736 10.0684C8.79736 10.0739 8.8029 10.0905 8.81396 10.1182C8.83057 10.1458 8.84717 10.1763 8.86377 10.2095C8.88037 10.2371 8.89421 10.2676 8.90527 10.3008C8.91634 10.3285 8.92188 10.3478 8.92188 10.3589C8.92188 10.3644 8.91911 10.3866 8.91357 10.4253C8.90804 10.464 8.89974 10.5055 8.88867 10.5498C8.88314 10.5941 8.8776 10.6356 8.87207 10.6743C8.86654 10.7131 8.86377 10.7352 8.86377 10.7407C8.86377 10.7739 8.85547 10.8486 8.83887 10.9648C8.8278 11.0811 8.81396 11.2056 8.79736 11.3384C8.7863 11.4657 8.77246 11.5846 8.75586 11.6953C8.74479 11.806 8.73926 11.8752 8.73926 11.9028C8.73926 11.9139 8.73372 11.9388 8.72266 11.9775C8.71159 12.0107 8.70052 12.0467 8.68945 12.0854C8.67839 12.1242 8.66732 12.1602 8.65625 12.1934C8.64518 12.2266 8.63965 12.2459 8.63965 12.2515C8.58431 12.4894 8.54834 12.7329 8.53174 12.9819C8.51514 13.231 8.50684 13.48 8.50684 13.729V14.2603C8.50684 14.2824 8.5179 14.3239 8.54004 14.3848C8.56771 14.4456 8.58154 14.4816 8.58154 14.4927C8.58154 14.6864 8.55941 14.8911 8.51514 15.1069L8.39062 15.7129C8.39062 15.724 8.38509 15.7489 8.37402 15.7876C8.36296 15.8263 8.35189 15.8678 8.34082 15.9121C8.32975 15.9564 8.31869 15.9979 8.30762 16.0366C8.29655 16.0754 8.29102 16.1003 8.29102 16.1113V16.2607V16.6343C8.27995 16.6564 8.26611 16.7062 8.24951 16.7837C8.23844 16.8612 8.22738 16.9054 8.21631 16.9165C8.21631 16.9497 8.21354 17.005 8.20801 17.0825C8.20247 17.16 8.19417 17.243 8.18311 17.3315C8.17757 17.4146 8.17204 17.4948 8.1665 17.5723C8.16097 17.6442 8.1582 17.694 8.1582 17.7217C8.14714 17.7383 8.125 17.7632 8.0918 17.7964L7.98389 17.9043C7.95068 17.943 7.91748 17.979 7.88428 18.0122C7.85661 18.0454 7.83447 18.0648 7.81787 18.0703C7.8068 18.0758 7.78744 18.0869 7.75977 18.1035C7.73763 18.1146 7.71826 18.1257 7.70166 18.1367C7.67399 18.1367 7.62142 18.134 7.54395 18.1284C7.46647 18.1229 7.38623 18.1201 7.30322 18.1201C7.21468 18.1201 7.12891 18.1229 7.0459 18.1284C6.96289 18.134 6.90755 18.1367 6.87988 18.1367C6.78581 18.1367 6.69727 18.181 6.61426 18.2695C6.53678 18.3581 6.49805 18.4577 6.49805 18.5684C6.49805 18.5739 6.50635 18.596 6.52295 18.6348C6.53955 18.6735 6.55892 18.7178 6.58105 18.7676C6.60319 18.8118 6.62533 18.8534 6.64746 18.8921C6.67513 18.9253 6.70003 18.9419 6.72217 18.9419Z" fill="url(#paint0_linear_1_6)"/>
<defs>
<linearGradient id="paint0_linear_1_6" x1="19.5" y1="3" x2="9.5" y2="24" gradientUnits="userSpaceOnUse">
<stop stop-color="#618CFF"/>
<stop offset="1" stop-color="#C14CFF"/>
</linearGradient>
</defs>
</svg>
