<svg width="32" height="32" viewBox="0 0 32 32" fill="none" xmlns="http://www.w3.org/2000/svg">
<path d="M0 16C0 7.16344 7.16344 0 16 0C24.8366 0 32 7.16344 32 16C32 24.8366 24.8366 32 16 32C7.16344 32 0 24.8366 0 16Z" fill="#0077B5"/>
<path d="M11.3069 13.2519V24.1464H7.68096V13.2519H11.3069ZM11.5457 9.8818C11.5457 10.9279 10.7583 11.7649 9.49401 11.7649H9.47084C8.25352 11.7649 7.46655 10.9279 7.46655 9.8818C7.46655 8.8136 8.27749 8 9.51791 8C10.7583 8 11.5222 8.8136 11.5457 9.8818ZM24.3835 17.8998L24.3833 24.1464H20.7575V18.3178C20.7575 16.8538 20.2328 15.8548 18.9202 15.8548C17.9185 15.8548 17.3218 16.5283 17.0597 17.1788C16.9639 17.4119 16.9403 17.7367 16.9403 18.0623V24.1467H13.314C13.314 24.1467 13.3617 14.2745 13.314 13.2522H16.9403V14.7953C17.4216 14.0535 18.2835 12.9961 20.2086 12.9961C22.5947 12.9961 24.3835 14.5535 24.3835 17.8998Z" fill="white"/>
</svg>
