<svg width="113" height="30" viewBox="0 0 113 30" fill="none" xmlns="http://www.w3.org/2000/svg">
<path d="M47.1584 13.1158H44.1399C44.0997 12.8059 44.0172 12.5262 43.8924 12.2766C43.7676 12.0271 43.6026 11.8138 43.3974 11.6367C43.1921 11.4596 42.9486 11.3248 42.6669 11.2322C42.3892 11.1357 42.0813 11.0874 41.7433 11.0874C41.1436 11.0874 40.6264 11.2343 40.1918 11.5281C39.7611 11.8219 39.4291 12.2464 39.1957 12.8018C38.9663 13.3572 38.8516 14.0294 38.8516 14.8182C38.8516 15.6392 38.9683 16.3274 39.2017 16.8828C39.4392 17.4342 39.7712 17.8507 40.1978 18.1325C40.6284 18.4102 41.1375 18.549 41.7251 18.549C42.0552 18.549 42.355 18.5067 42.6246 18.4222C42.8983 18.3377 43.1378 18.215 43.343 18.054C43.5523 17.889 43.7234 17.6897 43.8562 17.4563C43.993 17.2189 44.0876 16.9512 44.1399 16.6534L47.1584 16.6715C47.1061 17.2189 46.9471 17.7582 46.6815 18.2894C46.4199 18.8207 46.0597 19.3056 45.6009 19.7443C45.142 20.179 44.5826 20.5251 43.9226 20.7827C43.2666 21.0402 42.514 21.169 41.6648 21.169C40.5459 21.169 39.5438 20.9235 38.6584 20.4325C37.777 19.9375 37.0807 19.2171 36.5696 18.2713C36.0585 17.3255 35.8029 16.1745 35.8029 14.8182C35.8029 13.4579 36.0625 12.3048 36.5817 11.359C37.1009 10.4132 37.8031 9.69484 38.6886 9.20383C39.574 8.71283 40.5661 8.46733 41.6648 8.46733C42.4134 8.46733 43.1056 8.57197 43.7415 8.78125C44.3774 8.98651 44.9368 9.28835 45.4197 9.68679C45.9027 10.0812 46.2951 10.5662 46.5969 11.1417C46.8988 11.7172 47.0859 12.3752 47.1584 13.1158ZM48.8683 8.63636H52.569L55.7082 16.2912H55.8531L58.9923 8.63636H62.6929V21H59.7831V13.4055H59.6805L56.7103 20.9215H54.8509L51.8808 13.3633H51.7781V21H48.8683V8.63636ZM71.2397 12.343C71.1995 11.9003 71.0204 11.5562 70.7024 11.3107C70.3885 11.0612 69.9397 10.9364 69.3562 10.9364C68.9698 10.9364 68.6478 10.9867 68.3903 11.0874C68.1327 11.188 67.9395 11.3268 67.8107 11.5039C67.6819 11.677 67.6155 11.8762 67.6115 12.1016C67.6035 12.2867 67.6397 12.4497 67.7202 12.5906C67.8047 12.7314 67.9254 12.8562 68.0824 12.9648C68.2434 13.0695 68.4366 13.162 68.6619 13.2425C68.8873 13.323 69.1409 13.3935 69.4226 13.4538L70.4851 13.6953C71.0968 13.8281 71.6361 14.0052 72.103 14.2266C72.5739 14.4479 72.9683 14.7115 73.2862 15.0174C73.6082 15.3233 73.8517 15.6754 74.0167 16.0739C74.1817 16.4723 74.2662 16.919 74.2702 17.4141C74.2662 18.1948 74.069 18.8649 73.6786 19.4244C73.2882 19.9838 72.7268 20.4124 71.9943 20.7102C71.2659 21.008 70.3865 21.157 69.3562 21.157C68.3219 21.157 67.4203 21.002 66.6516 20.6921C65.8829 20.3822 65.2853 19.9113 64.8587 19.2795C64.4321 18.6476 64.2127 17.8487 64.2006 16.8828H67.0621C67.0863 17.2812 67.1929 17.6133 67.3821 17.8789C67.5713 18.1445 67.8308 18.3458 68.1609 18.4826C68.4949 18.6194 68.8813 18.6879 69.32 18.6879C69.7224 18.6879 70.0645 18.6335 70.3462 18.5249C70.632 18.4162 70.8513 18.2653 71.0043 18.0721C71.1572 17.8789 71.2357 17.6576 71.2397 17.408C71.2357 17.1746 71.1632 16.9754 71.0224 16.8104C70.8815 16.6413 70.6642 16.4964 70.3704 16.3757C70.0806 16.2509 69.7103 16.1362 69.2596 16.0316L67.9677 15.7298C66.8971 15.4843 66.054 15.0878 65.4382 14.5405C64.8224 13.9891 64.5166 13.2446 64.5206 12.3068C64.5166 11.5421 64.7218 10.872 65.1364 10.2965C65.5509 9.721 66.1244 9.27225 66.8569 8.95028C67.5894 8.62831 68.4245 8.46733 69.3622 8.46733C70.3201 8.46733 71.1512 8.63033 71.8555 8.95632C72.5638 9.27829 73.1132 9.73106 73.5036 10.3146C73.8939 10.8982 74.0932 11.5743 74.1012 12.343H71.2397Z" fill="#9A9AAF"/>
<path fill-rule="evenodd" clip-rule="evenodd" d="M16.5 29C23.9558 29 30 22.9558 30 15.5C30 8.04416 23.9558 2 16.5 2C9.04416 2 3 8.04416 3 15.5C3 22.9558 9.04416 29 16.5 29ZM9.72217 19.9419H11.291C11.3076 19.953 11.3353 19.964 11.374 19.9751L11.4902 20.0083C11.5345 20.0249 11.5732 20.036 11.6064 20.0415C11.6452 20.0526 11.6701 20.0581 11.6812 20.0581C11.6867 20.0581 11.7005 20.0553 11.7227 20.0498C11.7503 20.0443 11.7752 20.036 11.7974 20.0249C11.825 20.0194 11.8499 20.0138 11.8721 20.0083C11.8997 20.0028 11.9163 20 11.9219 20H12.1377C12.3701 20 12.6025 20.0083 12.835 20.0249C13.0674 20.047 13.2998 20.0581 13.5322 20.0581C13.5876 20.0581 13.6457 20.0553 13.7065 20.0498C13.7674 20.0443 13.8228 20.0304 13.8726 20.0083C13.9224 19.9862 13.9639 19.953 13.9971 19.9087C14.0303 19.8644 14.0469 19.8035 14.0469 19.7261C14.0469 19.6707 14.0358 19.6265 14.0137 19.5933C13.9971 19.5601 13.9722 19.5352 13.939 19.5186C13.9058 19.502 13.867 19.4881 13.8228 19.4771C13.7785 19.466 13.7342 19.4494 13.6899 19.4272C13.6789 19.4162 13.6512 19.3968 13.6069 19.3691C13.5682 19.3359 13.5433 19.311 13.5322 19.2944C13.4105 19.2446 13.2638 19.2087 13.0923 19.1865C12.9263 19.1644 12.7852 19.1478 12.6689 19.1367C12.6247 19.1035 12.5887 19.062 12.561 19.0122C12.5389 18.9569 12.5195 18.8988 12.5029 18.8379L12.4531 18.6553C12.4365 18.5944 12.4144 18.5391 12.3867 18.4893V17.2441C12.359 17.1833 12.3397 17.1362 12.3286 17.103C12.3175 17.0643 12.312 17.02 12.312 16.9702V16.8872C12.3175 16.8761 12.3258 16.8512 12.3369 16.8125C12.3535 16.7682 12.3674 16.724 12.3784 16.6797C12.395 16.6354 12.4089 16.5939 12.4199 16.5552C12.431 16.5164 12.4365 16.4915 12.4365 16.4805V15.6172C12.4365 15.6117 12.4393 15.5978 12.4448 15.5757C12.4504 15.548 12.4559 15.5231 12.4614 15.501C12.4725 15.4733 12.4808 15.4484 12.4863 15.4263L12.4946 15.3931C12.4946 15.2049 12.4725 15.0223 12.4282 14.8452C12.3895 14.6681 12.3701 14.4855 12.3701 14.2974C12.3701 14.1535 12.384 14.0151 12.4116 13.8823L12.4946 13.4839V13.4341C12.4946 13.3621 12.4836 13.2957 12.4614 13.2349C12.4448 13.174 12.4365 13.1131 12.4365 13.0522V12.9609L12.4448 12.9277C12.4504 12.9001 12.4559 12.8752 12.4614 12.853C12.4725 12.8254 12.4808 12.8005 12.4863 12.7783L12.4946 12.7368C12.5002 12.6317 12.5029 12.5376 12.5029 12.4546C12.5085 12.366 12.514 12.283 12.5195 12.2056L12.5361 11.9565C12.5472 11.8735 12.5666 11.7822 12.5942 11.6826H12.644C12.7547 11.6826 12.8405 11.7131 12.9014 11.7739C12.9678 11.8348 13.0203 11.9095 13.0591 11.998C13.1034 12.0866 13.1421 12.1779 13.1753 12.272C13.2085 12.3605 13.25 12.438 13.2998 12.5044L13.4741 12.6787C13.4852 12.6953 13.499 12.7202 13.5156 12.7534C13.5322 12.7811 13.5488 12.8143 13.5654 12.853C13.582 12.8862 13.5959 12.9194 13.6069 12.9526C13.6235 12.9803 13.6374 13.0024 13.6484 13.019C13.6484 13.0301 13.6512 13.055 13.6567 13.0938C13.6623 13.1325 13.6678 13.174 13.6733 13.2183C13.6789 13.2625 13.6816 13.3068 13.6816 13.3511C13.6872 13.3898 13.6899 13.4175 13.6899 13.4341C13.6955 13.4396 13.7038 13.4562 13.7148 13.4839C13.7314 13.506 13.7453 13.5337 13.7563 13.5669C13.7729 13.6001 13.7868 13.6333 13.7979 13.6665C13.8089 13.6942 13.8172 13.7135 13.8228 13.7246C13.8228 13.7357 13.8311 13.7633 13.8477 13.8076C13.8643 13.8464 13.8726 13.8713 13.8726 13.8823C13.8836 13.8934 13.9058 13.9238 13.939 13.9736C13.9722 14.0179 13.9943 14.0456 14.0054 14.0566V14.123C14.0109 14.1562 14.0137 14.1922 14.0137 14.231C14.0192 14.2697 14.0247 14.3057 14.0303 14.3389C14.0358 14.3721 14.0413 14.3914 14.0469 14.397C14.141 14.6903 14.2544 14.9725 14.3872 15.2437C14.52 15.5148 14.6362 15.7887 14.7358 16.0654C14.8133 16.2646 14.877 16.4556 14.9268 16.6382C14.9766 16.8153 15.0513 16.9924 15.1509 17.1694C15.1564 17.1805 15.173 17.2109 15.2007 17.2607C15.2284 17.3105 15.2588 17.3659 15.292 17.4268C15.3252 17.4821 15.3556 17.5374 15.3833 17.5928C15.4165 17.6426 15.4359 17.673 15.4414 17.6841C15.4857 17.7837 15.5189 17.875 15.541 17.958C15.5687 18.041 15.5908 18.124 15.6074 18.207C15.624 18.2845 15.6406 18.3647 15.6572 18.4478C15.6794 18.5308 15.7043 18.6221 15.7319 18.7217C15.743 18.7881 15.7679 18.8711 15.8066 18.9707C15.8509 19.0703 15.9007 19.1672 15.9561 19.2612C16.0169 19.3553 16.0833 19.4383 16.1553 19.5103C16.2272 19.5767 16.2992 19.6099 16.3711 19.6099C16.4486 19.6099 16.5177 19.5877 16.5786 19.5435C16.6395 19.4992 16.7004 19.4604 16.7612 19.4272C16.7778 19.4051 16.8 19.3608 16.8276 19.2944C16.8608 19.228 16.8968 19.1589 16.9355 19.0869C16.9743 19.0094 17.0075 18.9375 17.0352 18.8711C17.0684 18.7992 17.0933 18.7493 17.1099 18.7217C17.1099 18.7106 17.1182 18.6774 17.1348 18.6221C17.1569 18.5612 17.168 18.5169 17.168 18.4893C17.168 18.4837 17.1707 18.4616 17.1763 18.4229C17.1818 18.3841 17.1873 18.3426 17.1929 18.2983C17.1984 18.2541 17.2012 18.2126 17.2012 18.1738C17.2067 18.1351 17.2095 18.113 17.2095 18.1074C17.2205 18.0908 17.2399 18.0548 17.2676 17.9995C17.3008 17.9386 17.3312 17.875 17.3589 17.8086L17.4502 17.626C17.4779 17.5706 17.4917 17.5374 17.4917 17.5264C17.4972 17.5153 17.5111 17.4849 17.5332 17.4351C17.5553 17.3853 17.5775 17.3299 17.5996 17.269C17.6273 17.2026 17.6522 17.1418 17.6743 17.0864C17.702 17.0256 17.7241 16.9813 17.7407 16.9536C17.7905 16.8097 17.8265 16.6631 17.8486 16.5137C17.8708 16.3587 17.9095 16.2093 17.9648 16.0654C17.9759 16.0544 17.998 16.0295 18.0312 15.9907C18.0645 15.9465 18.0866 15.9188 18.0977 15.9077C18.0977 15.8966 18.1032 15.869 18.1143 15.8247C18.1253 15.7804 18.1336 15.75 18.1392 15.7334C18.1558 15.7002 18.1696 15.6449 18.1807 15.5674C18.1917 15.4844 18.2166 15.4263 18.2554 15.3931C18.2609 15.382 18.2803 15.3599 18.3135 15.3267C18.3522 15.2879 18.391 15.252 18.4297 15.2188L18.5376 15.1108L18.604 15.0444C18.604 15.0389 18.6068 15.0223 18.6123 14.9946L18.6289 14.895C18.6344 14.8618 18.64 14.8314 18.6455 14.8037C18.6566 14.7705 18.6649 14.7511 18.6704 14.7456C18.687 14.6847 18.7147 14.6377 18.7534 14.6045C18.7977 14.5713 18.8226 14.5215 18.8281 14.4551C18.8724 14.3057 18.9084 14.1535 18.936 13.9985C18.9692 13.8381 19.0107 13.6859 19.0605 13.542C19.127 13.387 19.2044 13.2432 19.293 13.1104C19.387 12.972 19.4673 12.8281 19.5337 12.6787C19.5337 12.6621 19.5392 12.64 19.5503 12.6123C19.5669 12.5846 19.5752 12.5625 19.5752 12.5459C19.5863 12.5404 19.6056 12.5265 19.6333 12.5044C19.6665 12.4767 19.6997 12.4463 19.7329 12.4131C19.7661 12.3799 19.7938 12.3494 19.8159 12.3218C19.8436 12.2941 19.8602 12.2747 19.8657 12.2637C19.8934 12.236 19.9155 12.2028 19.9321 12.1641C19.9543 12.1253 19.9764 12.0894 19.9985 12.0562C20.0207 12.0229 20.0456 11.9953 20.0732 11.9731C20.1064 11.9455 20.1479 11.9316 20.1978 11.9316C20.2199 11.9316 20.242 11.9538 20.2642 11.998C20.2918 12.0368 20.314 12.0838 20.3306 12.1392C20.3527 12.189 20.3693 12.2388 20.3804 12.2886C20.3914 12.3384 20.397 12.3716 20.397 12.3882C20.4025 12.438 20.4053 12.5182 20.4053 12.6289C20.4108 12.7396 20.4163 12.8558 20.4219 12.9775C20.4274 13.0993 20.4302 13.2155 20.4302 13.3262C20.4357 13.4313 20.4385 13.5033 20.4385 13.542V13.7495C20.444 13.8768 20.4495 14.0234 20.4551 14.1895C20.4606 14.3555 20.4634 14.5243 20.4634 14.6958C20.4689 14.8618 20.4717 14.9974 20.4717 15.1025C20.4717 15.1634 20.4689 15.2658 20.4634 15.4097C20.4634 15.5535 20.4606 15.7085 20.4551 15.8745C20.4495 16.035 20.444 16.1899 20.4385 16.3394V16.6382C20.3942 17.0034 20.3582 17.3631 20.3306 17.7173C20.3084 18.0715 20.2669 18.4256 20.2061 18.7798C20.2061 18.8351 20.2033 18.9043 20.1978 18.9873C20.1922 19.0648 20.1784 19.145 20.1562 19.228C20.1396 19.3055 20.112 19.3802 20.0732 19.4521C20.04 19.5186 19.9902 19.5628 19.9238 19.585C19.9183 19.5905 19.9017 19.5988 19.874 19.6099C19.8519 19.6154 19.8242 19.6209 19.791 19.6265L19.6914 19.6431C19.6637 19.6486 19.6444 19.6514 19.6333 19.6514C19.6222 19.6514 19.5946 19.6624 19.5503 19.6846C19.5116 19.7012 19.4867 19.7095 19.4756 19.7095C19.4368 19.7095 19.3677 19.7205 19.2681 19.7427C19.1685 19.7593 19.0993 19.7676 19.0605 19.7676V19.8257C19.0605 19.9032 19.0993 19.9779 19.1768 20.0498C19.2542 20.1217 19.3289 20.1577 19.4009 20.1577H19.5337H19.9902C19.9958 20.1577 20.0124 20.1522 20.04 20.1411C20.0677 20.13 20.0981 20.119 20.1313 20.1079C20.1646 20.0968 20.195 20.0858 20.2227 20.0747C20.2559 20.0636 20.2752 20.0581 20.2808 20.0581H20.3389H20.397C20.408 20.0581 20.4412 20.047 20.4966 20.0249C20.5575 20.0083 20.6017 20 20.6294 20H23.3853C23.4793 20 23.5623 19.9723 23.6343 19.917C23.7062 19.8561 23.7422 19.7869 23.7422 19.7095C23.7422 19.7039 23.7394 19.6846 23.7339 19.6514C23.7284 19.6182 23.7256 19.596 23.7256 19.585C23.7201 19.5794 23.7007 19.5684 23.6675 19.5518C23.6398 19.5352 23.6066 19.5186 23.5679 19.502C23.5291 19.4854 23.4932 19.4715 23.46 19.4604C23.4268 19.4438 23.4019 19.4328 23.3853 19.4272C23.3742 19.4217 23.3521 19.4162 23.3188 19.4106C23.2856 19.4051 23.2497 19.3996 23.2109 19.394C23.1777 19.383 23.1445 19.3747 23.1113 19.3691C23.0781 19.3636 23.0588 19.3581 23.0532 19.3525C23.0422 19.3525 23.02 19.347 22.9868 19.3359C22.9536 19.3249 22.9176 19.3138 22.8789 19.3027L22.7627 19.2695C22.7295 19.2585 22.7101 19.2529 22.7046 19.2529H22.4805C22.4639 19.2529 22.45 19.2474 22.439 19.2363C22.4279 19.2197 22.4168 19.2059 22.4058 19.1948C22.4058 19.1838 22.3975 19.1616 22.3809 19.1284C22.3698 19.0952 22.3587 19.0758 22.3477 19.0703L22.3062 19.0288C22.284 19.0011 22.2591 18.9707 22.2314 18.9375C22.2093 18.9043 22.1844 18.8739 22.1567 18.8462C22.1346 18.813 22.1208 18.7909 22.1152 18.7798C22.1042 18.7632 22.082 18.7244 22.0488 18.6636C22.0212 18.6027 22.0073 18.564 22.0073 18.5474V18.4644V18.3315C22.0073 18.3094 22.0156 18.2679 22.0322 18.207C22.0544 18.1462 22.0654 18.113 22.0654 18.1074V18.041V17.8999C22.071 17.8446 22.0737 17.7892 22.0737 17.7339V17.6011V17.5098C22.0737 17.46 22.071 17.4102 22.0654 17.3604V17.2109V17.1113C22.0378 17.0671 22.0212 17.0283 22.0156 16.9951C22.0101 16.9564 22.0073 16.9149 22.0073 16.8706V16.771C22.0073 16.6271 22.0267 16.4943 22.0654 16.3726C22.1097 16.2453 22.1318 16.1097 22.1318 15.9658C22.1318 15.8164 22.118 15.6615 22.0903 15.501C22.0627 15.3405 22.035 15.1883 22.0073 15.0444V15.0195V14.978C22.0073 14.967 22.0156 14.9393 22.0322 14.895C22.0544 14.8507 22.0654 14.8231 22.0654 14.812C22.0544 14.3029 22.0627 13.7993 22.0903 13.3013C22.118 12.7977 22.1318 12.2913 22.1318 11.7822C22.1318 11.7601 22.1291 11.7186 22.1235 11.6577V11.4585C22.1235 11.3866 22.1208 11.3174 22.1152 11.251V11.1099C22.1042 11.049 22.0903 10.9992 22.0737 10.9604L22.0405 10.8442C22.0295 10.8055 22.0212 10.7668 22.0156 10.728C22.0101 10.6838 22.0073 10.6284 22.0073 10.562V10.4209V10.1802C22.0129 10.0916 22.0239 10.0086 22.0405 9.93115C22.0627 9.84814 22.0931 9.77344 22.1318 9.70703C22.1706 9.64062 22.2231 9.59082 22.2896 9.55762C22.4002 9.50781 22.5026 9.47738 22.5967 9.46631C22.6908 9.44971 22.7848 9.44141 22.8789 9.44141C22.973 9.44141 23.0615 9.45247 23.1445 9.47461C23.2275 9.49121 23.3161 9.49951 23.4102 9.49951C23.4378 9.49951 23.4766 9.48568 23.5264 9.45801C23.5762 9.4248 23.626 9.38607 23.6758 9.3418C23.7256 9.29753 23.7671 9.25049 23.8003 9.20068C23.839 9.15088 23.8584 9.10384 23.8584 9.05957C23.8584 8.98763 23.8363 8.92122 23.792 8.86035C23.7477 8.79395 23.6924 8.73584 23.626 8.68604C23.5596 8.63623 23.4876 8.59749 23.4102 8.56982C23.3382 8.54215 23.2718 8.52832 23.2109 8.52832H23.1362C23.0975 8.52279 23.0505 8.52002 22.9951 8.52002H22.8374C22.7821 8.51449 22.7378 8.51172 22.7046 8.51172C22.5054 8.51172 22.3255 8.52279 22.165 8.54492C22.0046 8.56706 21.8358 8.60026 21.6587 8.64453C21.6532 8.64453 21.6338 8.65006 21.6006 8.66113C21.5674 8.6722 21.5286 8.68604 21.4844 8.70264L21.3682 8.73584C21.335 8.74137 21.3128 8.74414 21.3018 8.74414C21.2796 8.74967 21.2132 8.75244 21.1025 8.75244H20.7705C20.6598 8.74691 20.5934 8.74414 20.5713 8.74414C20.4661 8.76074 20.3748 8.79118 20.2974 8.83545C20.2199 8.87972 20.1535 8.93506 20.0981 9.00146C20.0428 9.06234 19.993 9.13151 19.9487 9.20898C19.9045 9.28646 19.863 9.36393 19.8242 9.44141V9.49121V9.49951C19.8242 9.51058 19.8298 9.53271 19.8408 9.56592C19.8574 9.59359 19.8657 9.61572 19.8657 9.63232V9.64893V9.67383C19.8657 9.69043 19.8602 9.72087 19.8491 9.76514C19.8381 9.80387 19.8298 9.83154 19.8242 9.84814C19.8132 9.87581 19.7855 9.93392 19.7412 10.0225C19.7025 10.111 19.661 10.2078 19.6167 10.313C19.5724 10.4181 19.5282 10.5177 19.4839 10.6118C19.4452 10.7004 19.4175 10.7557 19.4009 10.7778C19.3677 10.8719 19.3428 10.9771 19.3262 11.0933C19.3151 11.2039 19.2874 11.3063 19.2432 11.4004C19.1436 11.6383 19.0329 11.8625 18.9111 12.0728C18.7894 12.2775 18.687 12.4989 18.604 12.7368C18.5929 12.759 18.5846 12.7922 18.5791 12.8364C18.5736 12.8752 18.5653 12.9167 18.5542 12.9609C18.5487 13.0052 18.5404 13.0495 18.5293 13.0938C18.5182 13.138 18.5044 13.1712 18.4878 13.1934C18.4823 13.1989 18.4684 13.2155 18.4463 13.2432C18.4242 13.2708 18.3993 13.3013 18.3716 13.3345C18.3439 13.3677 18.319 13.4009 18.2969 13.4341C18.2747 13.4618 18.2609 13.4784 18.2554 13.4839C18.1945 13.5835 18.1475 13.6886 18.1143 13.7993C18.0811 13.9045 18.0312 14.0096 17.9648 14.1147C17.915 14.2033 17.8652 14.2835 17.8154 14.3555C17.7712 14.4219 17.7297 14.491 17.6909 14.563C17.6522 14.6294 17.6162 14.7013 17.583 14.7788C17.5498 14.8507 17.5194 14.9393 17.4917 15.0444C17.4917 15.061 17.4889 15.0804 17.4834 15.1025C17.4779 15.1247 17.4723 15.1496 17.4668 15.1772L17.4502 15.2603C17.4004 15.3709 17.3257 15.4678 17.2261 15.5508C17.132 15.6283 17.0545 15.703 16.9937 15.7749C16.9715 15.8026 16.9521 15.8358 16.9355 15.8745C16.9245 15.9077 16.9106 15.9409 16.894 15.9741C16.883 16.0073 16.8664 16.035 16.8442 16.0571C16.8221 16.0793 16.7944 16.0903 16.7612 16.0903C16.717 16.0903 16.6727 16.0737 16.6284 16.0405C16.5841 16.0018 16.5426 15.9575 16.5039 15.9077C16.4707 15.8579 16.4403 15.8081 16.4126 15.7583C16.3849 15.703 16.3628 15.6559 16.3462 15.6172C16.3407 15.5951 16.3324 15.5646 16.3213 15.5259C16.3102 15.4871 16.2992 15.4512 16.2881 15.418C16.277 15.3792 16.266 15.346 16.2549 15.3184C16.2493 15.2852 16.2466 15.2658 16.2466 15.2603C16.2466 15.2492 16.2549 15.2132 16.2715 15.1523C16.2936 15.0915 16.3047 15.0555 16.3047 15.0444V14.9033C16.3047 14.8314 16.2826 14.776 16.2383 14.7373C16.1995 14.6986 16.1525 14.6654 16.0972 14.6377C16.0418 14.6045 15.9893 14.5741 15.9395 14.5464C15.8896 14.5132 15.8537 14.4634 15.8315 14.397C15.8315 14.3859 15.8205 14.3499 15.7983 14.2891C15.7817 14.2227 15.7734 14.1839 15.7734 14.1729C15.7734 14.1618 15.7707 14.1369 15.7651 14.0981C15.7651 14.0539 15.7624 14.0096 15.7568 13.9653C15.7513 13.9211 15.7458 13.8796 15.7402 13.8408C15.7347 13.8021 15.7319 13.7772 15.7319 13.7661C15.6545 13.578 15.5687 13.4175 15.4746 13.2847C15.3861 13.1463 15.3141 12.9831 15.2588 12.7949C15.2588 12.7839 15.256 12.759 15.2505 12.7202C15.2505 12.6759 15.2477 12.6317 15.2422 12.5874C15.2367 12.5431 15.2284 12.5016 15.2173 12.4629C15.2118 12.4242 15.2062 12.3993 15.2007 12.3882C15.1951 12.3826 15.1813 12.366 15.1592 12.3384C15.137 12.3107 15.1121 12.283 15.0845 12.2554C15.0568 12.2222 15.0319 12.1917 15.0098 12.1641C14.9876 12.1364 14.9738 12.117 14.9683 12.106C14.9683 12.0949 14.9572 12.0562 14.9351 11.9897C14.9185 11.9233 14.9102 11.8846 14.9102 11.8735C14.888 11.8071 14.8493 11.7241 14.7939 11.6245C14.7441 11.5249 14.7054 11.4364 14.6777 11.3589C14.6777 11.3423 14.675 11.3091 14.6694 11.2593C14.6639 11.2039 14.6556 11.1486 14.6445 11.0933C14.639 11.0324 14.6335 10.9771 14.6279 10.9272C14.6224 10.8719 14.6196 10.8387 14.6196 10.8276C14.5975 10.6948 14.5477 10.5786 14.4702 10.479C14.3983 10.3739 14.3402 10.2632 14.2959 10.147C14.2793 10.1248 14.2655 10.0833 14.2544 10.0225C14.2433 9.96159 14.2323 9.92839 14.2212 9.92285C14.2212 9.91178 14.2129 9.89518 14.1963 9.87305C14.1852 9.84538 14.1686 9.82048 14.1465 9.79834C14.1243 9.77067 14.1022 9.74577 14.0801 9.72363C14.0635 9.7015 14.0524 9.6849 14.0469 9.67383C13.9362 9.51335 13.82 9.36947 13.6982 9.24219C13.582 9.10938 13.4299 9.00423 13.2417 8.92676H12.0215L11.98 8.91846C11.9523 8.91292 11.9219 8.90739 11.8887 8.90186C11.861 8.89079 11.8306 8.88249 11.7974 8.87695C11.7697 8.87142 11.7503 8.86865 11.7393 8.86865H11.2163H10.7764C10.7598 8.86865 10.7266 8.87419 10.6768 8.88525C10.627 8.89632 10.5716 8.91016 10.5107 8.92676C10.4499 8.94336 10.3945 8.95719 10.3447 8.96826C10.2949 8.97933 10.2617 8.98486 10.2451 8.98486H10.0708C10.0597 8.99593 10.0376 9.0153 10.0044 9.04297C9.97119 9.0651 9.95459 9.08447 9.95459 9.10107C9.99886 9.23389 10.0487 9.3335 10.104 9.3999C10.1593 9.46077 10.223 9.50505 10.2949 9.53271C10.3724 9.56038 10.4582 9.58252 10.5522 9.59912C10.6463 9.61572 10.7542 9.64062 10.876 9.67383C10.887 9.67383 10.9092 9.67936 10.9424 9.69043C10.9756 9.7015 11.0088 9.71533 11.042 9.73193C11.0807 9.74854 11.1167 9.76237 11.1499 9.77344C11.1831 9.78451 11.2052 9.79004 11.2163 9.79004C11.3215 9.80111 11.4349 9.80941 11.5566 9.81494C11.6839 9.82048 11.7863 9.87028 11.8638 9.96436C11.8693 9.99202 11.8748 10.0335 11.8804 10.0889C11.8859 10.1387 11.8914 10.194 11.897 10.2549C11.9025 10.3158 11.908 10.3739 11.9136 10.4292C11.9191 10.479 11.9219 10.515 11.9219 10.5371C11.9219 10.5426 11.9191 10.562 11.9136 10.5952C11.908 10.6229 11.9025 10.6561 11.897 10.6948C11.8914 10.728 11.8859 10.764 11.8804 10.8027C11.8748 10.8359 11.8693 10.8608 11.8638 10.8774C11.8582 10.8885 11.8444 10.9189 11.8223 10.9688C11.8057 11.0186 11.7974 11.0518 11.7974 11.0684C11.7974 11.0739 11.8029 11.0905 11.814 11.1182C11.8306 11.1458 11.8472 11.1763 11.8638 11.2095C11.8804 11.2371 11.8942 11.2676 11.9053 11.3008C11.9163 11.3285 11.9219 11.3478 11.9219 11.3589C11.9219 11.3644 11.9191 11.3866 11.9136 11.4253C11.908 11.464 11.8997 11.5055 11.8887 11.5498C11.8831 11.5941 11.8776 11.6356 11.8721 11.6743C11.8665 11.7131 11.8638 11.7352 11.8638 11.7407C11.8638 11.7739 11.8555 11.8486 11.8389 11.9648C11.8278 12.0811 11.814 12.2056 11.7974 12.3384C11.7863 12.4657 11.7725 12.5846 11.7559 12.6953C11.7448 12.806 11.7393 12.8752 11.7393 12.9028C11.7393 12.9139 11.7337 12.9388 11.7227 12.9775C11.7116 13.0107 11.7005 13.0467 11.6895 13.0854C11.6784 13.1242 11.6673 13.1602 11.6562 13.1934C11.6452 13.2266 11.6396 13.2459 11.6396 13.2515C11.5843 13.4894 11.5483 13.7329 11.5317 13.9819C11.5151 14.231 11.5068 14.48 11.5068 14.729V15.2603C11.5068 15.2824 11.5179 15.3239 11.54 15.3848C11.5677 15.4456 11.5815 15.4816 11.5815 15.4927C11.5815 15.6864 11.5594 15.8911 11.5151 16.1069L11.3906 16.7129C11.3906 16.724 11.3851 16.7489 11.374 16.7876C11.363 16.8263 11.3519 16.8678 11.3408 16.9121C11.3298 16.9564 11.3187 16.9979 11.3076 17.0366C11.2965 17.0754 11.291 17.1003 11.291 17.1113V17.2607V17.6343C11.2799 17.6564 11.2661 17.7062 11.2495 17.7837C11.2384 17.8612 11.2274 17.9054 11.2163 17.9165C11.2163 17.9497 11.2135 18.005 11.208 18.0825C11.2025 18.16 11.1942 18.243 11.1831 18.3315C11.1776 18.4146 11.172 18.4948 11.1665 18.5723C11.161 18.6442 11.1582 18.694 11.1582 18.7217C11.1471 18.7383 11.125 18.7632 11.0918 18.7964L10.9839 18.9043C10.9507 18.943 10.9175 18.979 10.8843 19.0122C10.8566 19.0454 10.8345 19.0648 10.8179 19.0703C10.8068 19.0758 10.7874 19.0869 10.7598 19.1035C10.7376 19.1146 10.7183 19.1257 10.7017 19.1367C10.674 19.1367 10.6214 19.134 10.5439 19.1284C10.4665 19.1229 10.3862 19.1201 10.3032 19.1201C10.2147 19.1201 10.1289 19.1229 10.0459 19.1284C9.96289 19.134 9.90755 19.1367 9.87988 19.1367C9.78581 19.1367 9.69727 19.181 9.61426 19.2695C9.53678 19.3581 9.49805 19.4577 9.49805 19.5684C9.49805 19.5739 9.50635 19.596 9.52295 19.6348C9.53955 19.6735 9.55892 19.7178 9.58105 19.7676C9.60319 19.8118 9.62533 19.8534 9.64746 19.8921C9.67513 19.9253 9.70003 19.9419 9.72217 19.9419Z" fill="url(#paint0_linear_1_6)"/>
<defs>
<linearGradient id="paint0_linear_1_6" x1="23.25" y1="2" x2="10.9773" y2="27.7727" gradientUnits="userSpaceOnUse">
<stop stop-color="#618CFF"/>
<stop offset="1" stop-color="#C14CFF"/>
</linearGradient>
</defs>
</svg>
