<svg width="28" height="24" viewBox="0 0 28 24" fill="none" xmlns="http://www.w3.org/2000/svg">
<path fill-rule="evenodd" clip-rule="evenodd" d="M14 23C20.0751 23 25 18.0751 25 12C25 5.92487 20.0751 1 14 1C7.92487 1 3 5.92487 3 12C3 18.0751 7.92487 23 14 23ZM6.72217 16.9419H8.29102C8.30762 16.953 8.33529 16.964 8.37402 16.9751L8.49023 17.0083C8.53451 17.0249 8.57324 17.036 8.60645 17.0415C8.64518 17.0526 8.67008 17.0581 8.68115 17.0581C8.68669 17.0581 8.70052 17.0553 8.72266 17.0498C8.75033 17.0443 8.77523 17.036 8.79736 17.0249C8.82503 17.0194 8.84994 17.0138 8.87207 17.0083C8.89974 17.0028 8.91634 17 8.92188 17H9.1377C9.37012 17 9.60254 17.0083 9.83496 17.0249C10.0674 17.047 10.2998 17.0581 10.5322 17.0581C10.5876 17.0581 10.6457 17.0553 10.7065 17.0498C10.7674 17.0443 10.8228 17.0304 10.8726 17.0083C10.9224 16.9862 10.9639 16.953 10.9971 16.9087C11.0303 16.8644 11.0469 16.8035 11.0469 16.7261C11.0469 16.6707 11.0358 16.6265 11.0137 16.5933C10.9971 16.5601 10.9722 16.5352 10.939 16.5186C10.9058 16.502 10.867 16.4881 10.8228 16.4771C10.7785 16.466 10.7342 16.4494 10.6899 16.4272C10.6789 16.4162 10.6512 16.3968 10.6069 16.3691C10.5682 16.3359 10.5433 16.311 10.5322 16.2944C10.4105 16.2446 10.2638 16.2087 10.0923 16.1865C9.92627 16.1644 9.78516 16.1478 9.66895 16.1367C9.62467 16.1035 9.5887 16.062 9.56104 16.0122C9.5389 15.9569 9.51953 15.8988 9.50293 15.8379L9.45312 15.6553C9.43652 15.5944 9.41439 15.5391 9.38672 15.4893V14.2441C9.35905 14.1833 9.33968 14.1362 9.32861 14.103C9.31755 14.0643 9.31201 14.02 9.31201 13.9702V13.8872C9.31755 13.8761 9.32585 13.8512 9.33691 13.8125C9.35352 13.7682 9.36735 13.724 9.37842 13.6797C9.39502 13.6354 9.40885 13.5939 9.41992 13.5552C9.43099 13.5164 9.43652 13.4915 9.43652 13.4805V12.6172C9.43652 12.6117 9.43929 12.5978 9.44482 12.5757C9.45036 12.548 9.45589 12.5231 9.46143 12.501C9.47249 12.4733 9.48079 12.4484 9.48633 12.4263L9.49463 12.3931C9.49463 12.2049 9.47249 12.0223 9.42822 11.8452C9.38949 11.6681 9.37012 11.4855 9.37012 11.2974C9.37012 11.1535 9.38395 11.0151 9.41162 10.8823L9.49463 10.4839V10.4341C9.49463 10.3621 9.48356 10.2957 9.46143 10.2349C9.44482 10.174 9.43652 10.1131 9.43652 10.0522V9.96094L9.44482 9.92773C9.45036 9.90007 9.45589 9.87516 9.46143 9.85303C9.47249 9.82536 9.48079 9.80046 9.48633 9.77832L9.49463 9.73682C9.50016 9.63167 9.50293 9.5376 9.50293 9.45459C9.50846 9.36605 9.514 9.28304 9.51953 9.20557L9.53613 8.95654C9.5472 8.87354 9.56657 8.78223 9.59424 8.68262H9.64404C9.75472 8.68262 9.84049 8.71305 9.90137 8.77393C9.96777 8.8348 10.0203 8.90951 10.0591 8.99805C10.1034 9.08659 10.1421 9.1779 10.1753 9.27197C10.2085 9.36051 10.25 9.43799 10.2998 9.50439L10.4741 9.67871C10.4852 9.69531 10.499 9.72021 10.5156 9.75342C10.5322 9.78109 10.5488 9.81429 10.5654 9.85303C10.582 9.88623 10.5959 9.91943 10.6069 9.95264C10.6235 9.98031 10.6374 10.0024 10.6484 10.019C10.6484 10.0301 10.6512 10.055 10.6567 10.0938C10.6623 10.1325 10.6678 10.174 10.6733 10.2183C10.6789 10.2625 10.6816 10.3068 10.6816 10.3511C10.6872 10.3898 10.6899 10.4175 10.6899 10.4341C10.6955 10.4396 10.7038 10.4562 10.7148 10.4839C10.7314 10.506 10.7453 10.5337 10.7563 10.5669C10.7729 10.6001 10.7868 10.6333 10.7979 10.6665C10.8089 10.6942 10.8172 10.7135 10.8228 10.7246C10.8228 10.7357 10.8311 10.7633 10.8477 10.8076C10.8643 10.8464 10.8726 10.8713 10.8726 10.8823C10.8836 10.8934 10.9058 10.9238 10.939 10.9736C10.9722 11.0179 10.9943 11.0456 11.0054 11.0566V11.123C11.0109 11.1562 11.0137 11.1922 11.0137 11.231C11.0192 11.2697 11.0247 11.3057 11.0303 11.3389C11.0358 11.3721 11.0413 11.3914 11.0469 11.397C11.141 11.6903 11.2544 11.9725 11.3872 12.2437C11.52 12.5148 11.6362 12.7887 11.7358 13.0654C11.8133 13.2646 11.877 13.4556 11.9268 13.6382C11.9766 13.8153 12.0513 13.9924 12.1509 14.1694C12.1564 14.1805 12.173 14.2109 12.2007 14.2607C12.2284 14.3105 12.2588 14.3659 12.292 14.4268C12.3252 14.4821 12.3556 14.5374 12.3833 14.5928C12.4165 14.6426 12.4359 14.673 12.4414 14.6841C12.4857 14.7837 12.5189 14.875 12.541 14.958C12.5687 15.041 12.5908 15.124 12.6074 15.207C12.624 15.2845 12.6406 15.3647 12.6572 15.4478C12.6794 15.5308 12.7043 15.6221 12.7319 15.7217C12.743 15.7881 12.7679 15.8711 12.8066 15.9707C12.8509 16.0703 12.9007 16.1672 12.9561 16.2612C13.0169 16.3553 13.0833 16.4383 13.1553 16.5103C13.2272 16.5767 13.2992 16.6099 13.3711 16.6099C13.4486 16.6099 13.5177 16.5877 13.5786 16.5435C13.6395 16.4992 13.7004 16.4604 13.7612 16.4272C13.7778 16.4051 13.8 16.3608 13.8276 16.2944C13.8608 16.228 13.8968 16.1589 13.9355 16.0869C13.9743 16.0094 14.0075 15.9375 14.0352 15.8711C14.0684 15.7992 14.0933 15.7493 14.1099 15.7217C14.1099 15.7106 14.1182 15.6774 14.1348 15.6221C14.1569 15.5612 14.168 15.5169 14.168 15.4893C14.168 15.4837 14.1707 15.4616 14.1763 15.4229C14.1818 15.3841 14.1873 15.3426 14.1929 15.2983C14.1984 15.2541 14.2012 15.2126 14.2012 15.1738C14.2067 15.1351 14.2095 15.113 14.2095 15.1074C14.2205 15.0908 14.2399 15.0549 14.2676 14.9995C14.3008 14.9386 14.3312 14.875 14.3589 14.8086L14.4502 14.626C14.4779 14.5706 14.4917 14.5374 14.4917 14.5264C14.4972 14.5153 14.5111 14.4849 14.5332 14.4351C14.5553 14.3853 14.5775 14.3299 14.5996 14.269C14.6273 14.2026 14.6522 14.1418 14.6743 14.0864C14.702 14.0256 14.7241 13.9813 14.7407 13.9536C14.7905 13.8097 14.8265 13.6631 14.8486 13.5137C14.8708 13.3587 14.9095 13.2093 14.9648 13.0654C14.9759 13.0544 14.998 13.0295 15.0312 12.9907C15.0645 12.9465 15.0866 12.9188 15.0977 12.9077C15.0977 12.8966 15.1032 12.869 15.1143 12.8247C15.1253 12.7804 15.1336 12.75 15.1392 12.7334C15.1558 12.7002 15.1696 12.6449 15.1807 12.5674C15.1917 12.4844 15.2166 12.4263 15.2554 12.3931C15.2609 12.382 15.2803 12.3599 15.3135 12.3267C15.3522 12.2879 15.391 12.252 15.4297 12.2188L15.5376 12.1108L15.604 12.0444C15.604 12.0389 15.6068 12.0223 15.6123 11.9946L15.6289 11.895C15.6344 11.8618 15.64 11.8314 15.6455 11.8037C15.6566 11.7705 15.6649 11.7511 15.6704 11.7456C15.687 11.6847 15.7147 11.6377 15.7534 11.6045C15.7977 11.5713 15.8226 11.5215 15.8281 11.4551C15.8724 11.3057 15.9084 11.1535 15.936 10.9985C15.9692 10.8381 16.0107 10.6859 16.0605 10.542C16.127 10.387 16.2044 10.2432 16.293 10.1104C16.387 9.972 16.4673 9.82812 16.5337 9.67871C16.5337 9.66211 16.5392 9.63997 16.5503 9.6123C16.5669 9.58464 16.5752 9.5625 16.5752 9.5459C16.5863 9.54036 16.6056 9.52653 16.6333 9.50439C16.6665 9.47673 16.6997 9.44629 16.7329 9.41309C16.7661 9.37988 16.7938 9.34945 16.8159 9.32178C16.8436 9.29411 16.8602 9.27474 16.8657 9.26367C16.8934 9.236 16.9155 9.2028 16.9321 9.16406C16.9543 9.12533 16.9764 9.08936 16.9985 9.05615C17.0207 9.02295 17.0456 8.99528 17.0732 8.97314C17.1064 8.94548 17.1479 8.93164 17.1978 8.93164C17.2199 8.93164 17.242 8.95378 17.2642 8.99805C17.2918 9.03678 17.314 9.08382 17.3306 9.13916C17.3527 9.18896 17.3693 9.23877 17.3804 9.28857C17.3914 9.33838 17.397 9.37158 17.397 9.38818C17.4025 9.43799 17.4053 9.51823 17.4053 9.62891C17.4108 9.73958 17.4163 9.85579 17.4219 9.97754C17.4274 10.0993 17.4302 10.2155 17.4302 10.3262C17.4357 10.4313 17.4385 10.5033 17.4385 10.542V10.7495C17.444 10.8768 17.4495 11.0234 17.4551 11.1895C17.4606 11.3555 17.4634 11.5243 17.4634 11.6958C17.4689 11.8618 17.4717 11.9974 17.4717 12.1025C17.4717 12.1634 17.4689 12.2658 17.4634 12.4097C17.4634 12.5535 17.4606 12.7085 17.4551 12.8745C17.4495 13.035 17.444 13.1899 17.4385 13.3394V13.6382C17.3942 14.0034 17.3582 14.3631 17.3306 14.7173C17.3084 15.0715 17.2669 15.4256 17.2061 15.7798C17.2061 15.8351 17.2033 15.9043 17.1978 15.9873C17.1922 16.0648 17.1784 16.145 17.1562 16.228C17.1396 16.3055 17.112 16.3802 17.0732 16.4521C17.04 16.5186 16.9902 16.5628 16.9238 16.585C16.9183 16.5905 16.9017 16.5988 16.874 16.6099C16.8519 16.6154 16.8242 16.6209 16.791 16.6265L16.6914 16.6431C16.6637 16.6486 16.6444 16.6514 16.6333 16.6514C16.6222 16.6514 16.5946 16.6624 16.5503 16.6846C16.5116 16.7012 16.4867 16.7095 16.4756 16.7095C16.4368 16.7095 16.3677 16.7205 16.2681 16.7427C16.1685 16.7593 16.0993 16.7676 16.0605 16.7676V16.8257C16.0605 16.9032 16.0993 16.9779 16.1768 17.0498C16.2542 17.1217 16.3289 17.1577 16.4009 17.1577H16.5337H16.9902C16.9958 17.1577 17.0124 17.1522 17.04 17.1411C17.0677 17.13 17.0981 17.119 17.1313 17.1079C17.1646 17.0968 17.195 17.0858 17.2227 17.0747C17.2559 17.0636 17.2752 17.0581 17.2808 17.0581H17.3389H17.397C17.408 17.0581 17.4412 17.047 17.4966 17.0249C17.5575 17.0083 17.6017 17 17.6294 17H20.3853C20.4793 17 20.5623 16.9723 20.6343 16.917C20.7062 16.8561 20.7422 16.7869 20.7422 16.7095C20.7422 16.7039 20.7394 16.6846 20.7339 16.6514C20.7284 16.6182 20.7256 16.596 20.7256 16.585C20.7201 16.5794 20.7007 16.5684 20.6675 16.5518C20.6398 16.5352 20.6066 16.5186 20.5679 16.502C20.5291 16.4854 20.4932 16.4715 20.46 16.4604C20.4268 16.4438 20.4019 16.4328 20.3853 16.4272C20.3742 16.4217 20.3521 16.4162 20.3188 16.4106C20.2856 16.4051 20.2497 16.3996 20.2109 16.394C20.1777 16.383 20.1445 16.3747 20.1113 16.3691C20.0781 16.3636 20.0588 16.3581 20.0532 16.3525C20.0422 16.3525 20.02 16.347 19.9868 16.3359C19.9536 16.3249 19.9176 16.3138 19.8789 16.3027L19.7627 16.2695C19.7295 16.2585 19.7101 16.2529 19.7046 16.2529H19.4805C19.4639 16.2529 19.45 16.2474 19.439 16.2363C19.4279 16.2197 19.4168 16.2059 19.4058 16.1948C19.4058 16.1838 19.3975 16.1616 19.3809 16.1284C19.3698 16.0952 19.3587 16.0758 19.3477 16.0703L19.3062 16.0288C19.284 16.0011 19.2591 15.9707 19.2314 15.9375C19.2093 15.9043 19.1844 15.8739 19.1567 15.8462C19.1346 15.813 19.1208 15.7909 19.1152 15.7798C19.1042 15.7632 19.082 15.7244 19.0488 15.6636C19.0212 15.6027 19.0073 15.564 19.0073 15.5474V15.4644V15.3315C19.0073 15.3094 19.0156 15.2679 19.0322 15.207C19.0544 15.1462 19.0654 15.113 19.0654 15.1074V15.041V14.8999C19.071 14.8446 19.0737 14.7892 19.0737 14.7339V14.6011V14.5098C19.0737 14.46 19.071 14.4102 19.0654 14.3604V14.2109V14.1113C19.0378 14.0671 19.0212 14.0283 19.0156 13.9951C19.0101 13.9564 19.0073 13.9149 19.0073 13.8706V13.771C19.0073 13.6271 19.0267 13.4943 19.0654 13.3726C19.1097 13.2453 19.1318 13.1097 19.1318 12.9658C19.1318 12.8164 19.118 12.6615 19.0903 12.501C19.0627 12.3405 19.035 12.1883 19.0073 12.0444V12.0195V11.978C19.0073 11.967 19.0156 11.9393 19.0322 11.895C19.0544 11.8507 19.0654 11.8231 19.0654 11.812C19.0544 11.3029 19.0627 10.7993 19.0903 10.3013C19.118 9.79769 19.1318 9.29134 19.1318 8.78223C19.1318 8.76009 19.1291 8.71859 19.1235 8.65771V8.4585C19.1235 8.38656 19.1208 8.31738 19.1152 8.25098V8.10986C19.1042 8.04899 19.0903 7.99919 19.0737 7.96045L19.0405 7.84424C19.0295 7.8055 19.0212 7.76676 19.0156 7.72803C19.0101 7.68376 19.0073 7.62842 19.0073 7.56201V7.4209V7.18018C19.0129 7.09163 19.0239 7.00863 19.0405 6.93115C19.0627 6.84814 19.0931 6.77344 19.1318 6.70703C19.1706 6.64062 19.2231 6.59082 19.2896 6.55762C19.4002 6.50781 19.5026 6.47738 19.5967 6.46631C19.6908 6.44971 19.7848 6.44141 19.8789 6.44141C19.973 6.44141 20.0615 6.45247 20.1445 6.47461C20.2275 6.49121 20.3161 6.49951 20.4102 6.49951C20.4378 6.49951 20.4766 6.48568 20.5264 6.45801C20.5762 6.4248 20.626 6.38607 20.6758 6.3418C20.7256 6.29753 20.7671 6.25049 20.8003 6.20068C20.839 6.15088 20.8584 6.10384 20.8584 6.05957C20.8584 5.98763 20.8363 5.92122 20.792 5.86035C20.7477 5.79395 20.6924 5.73584 20.626 5.68604C20.5596 5.63623 20.4876 5.59749 20.4102 5.56982C20.3382 5.54215 20.2718 5.52832 20.2109 5.52832H20.1362C20.0975 5.52279 20.0505 5.52002 19.9951 5.52002H19.8374C19.7821 5.51449 19.7378 5.51172 19.7046 5.51172C19.5054 5.51172 19.3255 5.52279 19.165 5.54492C19.0046 5.56706 18.8358 5.60026 18.6587 5.64453C18.6532 5.64453 18.6338 5.65006 18.6006 5.66113C18.5674 5.6722 18.5286 5.68604 18.4844 5.70264L18.3682 5.73584C18.335 5.74137 18.3128 5.74414 18.3018 5.74414C18.2796 5.74967 18.2132 5.75244 18.1025 5.75244H17.7705C17.6598 5.74691 17.5934 5.74414 17.5713 5.74414C17.4661 5.76074 17.3748 5.79118 17.2974 5.83545C17.2199 5.87972 17.1535 5.93506 17.0981 6.00146C17.0428 6.06234 16.993 6.13151 16.9487 6.20898C16.9045 6.28646 16.863 6.36393 16.8242 6.44141V6.49121V6.49951C16.8242 6.51058 16.8298 6.53271 16.8408 6.56592C16.8574 6.59359 16.8657 6.61572 16.8657 6.63232V6.64893V6.67383C16.8657 6.69043 16.8602 6.72087 16.8491 6.76514C16.8381 6.80387 16.8298 6.83154 16.8242 6.84814C16.8132 6.87581 16.7855 6.93392 16.7412 7.02246C16.7025 7.111 16.661 7.20785 16.6167 7.31299C16.5724 7.41813 16.5282 7.51774 16.4839 7.61182C16.4451 7.70036 16.4175 7.7557 16.4009 7.77783C16.3677 7.87191 16.3428 7.97705 16.3262 8.09326C16.3151 8.20394 16.2874 8.30631 16.2432 8.40039C16.1436 8.63835 16.0329 8.86247 15.9111 9.07275C15.7894 9.27751 15.687 9.49886 15.604 9.73682C15.5929 9.75895 15.5846 9.79216 15.5791 9.83643C15.5736 9.87516 15.5653 9.91667 15.5542 9.96094C15.5487 10.0052 15.5404 10.0495 15.5293 10.0938C15.5182 10.138 15.5044 10.1712 15.4878 10.1934C15.4823 10.1989 15.4684 10.2155 15.4463 10.2432C15.4242 10.2708 15.3993 10.3013 15.3716 10.3345C15.3439 10.3677 15.319 10.4009 15.2969 10.4341C15.2747 10.4618 15.2609 10.4784 15.2554 10.4839C15.1945 10.5835 15.1475 10.6886 15.1143 10.7993C15.0811 10.9045 15.0312 11.0096 14.9648 11.1147C14.915 11.2033 14.8652 11.2835 14.8154 11.3555C14.7712 11.4219 14.7297 11.491 14.6909 11.563C14.6522 11.6294 14.6162 11.7013 14.583 11.7788C14.5498 11.8507 14.5194 11.9393 14.4917 12.0444C14.4917 12.061 14.4889 12.0804 14.4834 12.1025C14.4779 12.1247 14.4723 12.1496 14.4668 12.1772L14.4502 12.2603C14.4004 12.3709 14.3257 12.4678 14.2261 12.5508C14.132 12.6283 14.0545 12.703 13.9937 12.7749C13.9715 12.8026 13.9521 12.8358 13.9355 12.8745C13.9245 12.9077 13.9106 12.9409 13.894 12.9741C13.883 13.0073 13.8664 13.035 13.8442 13.0571C13.8221 13.0793 13.7944 13.0903 13.7612 13.0903C13.717 13.0903 13.6727 13.0737 13.6284 13.0405C13.5841 13.0018 13.5426 12.9575 13.5039 12.9077C13.4707 12.8579 13.4403 12.8081 13.4126 12.7583C13.3849 12.703 13.3628 12.6559 13.3462 12.6172C13.3407 12.5951 13.3324 12.5646 13.3213 12.5259C13.3102 12.4871 13.2992 12.4512 13.2881 12.418C13.277 12.3792 13.266 12.346 13.2549 12.3184C13.2493 12.2852 13.2466 12.2658 13.2466 12.2603C13.2466 12.2492 13.2549 12.2132 13.2715 12.1523C13.2936 12.0915 13.3047 12.0555 13.3047 12.0444V11.9033C13.3047 11.8314 13.2826 11.776 13.2383 11.7373C13.1995 11.6986 13.1525 11.6654 13.0972 11.6377C13.0418 11.6045 12.9893 11.5741 12.9395 11.5464C12.8896 11.5132 12.8537 11.4634 12.8315 11.397C12.8315 11.3859 12.8205 11.3499 12.7983 11.2891C12.7817 11.2227 12.7734 11.1839 12.7734 11.1729C12.7734 11.1618 12.7707 11.1369 12.7651 11.0981C12.7651 11.0539 12.7624 11.0096 12.7568 10.9653C12.7513 10.9211 12.7458 10.8796 12.7402 10.8408C12.7347 10.8021 12.7319 10.7772 12.7319 10.7661C12.6545 10.578 12.5687 10.4175 12.4746 10.2847C12.3861 10.1463 12.3141 9.98307 12.2588 9.79492C12.2588 9.78385 12.256 9.75895 12.2505 9.72021C12.2505 9.67594 12.2477 9.63167 12.2422 9.5874C12.2367 9.54313 12.2284 9.50163 12.2173 9.46289C12.2118 9.42415 12.2062 9.39925 12.2007 9.38818C12.1951 9.38265 12.1813 9.36605 12.1592 9.33838C12.137 9.31071 12.1121 9.28304 12.0845 9.25537C12.0568 9.22217 12.0319 9.19173 12.0098 9.16406C11.9876 9.13639 11.9738 9.11702 11.9683 9.10596C11.9683 9.09489 11.9572 9.05615 11.9351 8.98975C11.9185 8.92334 11.9102 8.8846 11.9102 8.87354C11.888 8.80713 11.8493 8.72412 11.7939 8.62451C11.7441 8.5249 11.7054 8.43636 11.6777 8.35889C11.6777 8.34229 11.675 8.30908 11.6694 8.25928C11.6639 8.20394 11.6556 8.1486 11.6445 8.09326C11.639 8.03239 11.6335 7.97705 11.6279 7.92725C11.6224 7.87191 11.6196 7.8387 11.6196 7.82764C11.5975 7.69482 11.5477 7.57861 11.4702 7.479C11.3983 7.37386 11.3402 7.26318 11.2959 7.14697C11.2793 7.12484 11.2655 7.08333 11.2544 7.02246C11.2433 6.96159 11.2323 6.92839 11.2212 6.92285C11.2212 6.91178 11.2129 6.89518 11.1963 6.87305C11.1852 6.84538 11.1686 6.82048 11.1465 6.79834C11.1243 6.77067 11.1022 6.74577 11.0801 6.72363C11.0635 6.7015 11.0524 6.6849 11.0469 6.67383C10.9362 6.51335 10.82 6.36947 10.6982 6.24219C10.582 6.10938 10.4299 6.00423 10.2417 5.92676H9.02148L8.97998 5.91846C8.95231 5.91292 8.92188 5.90739 8.88867 5.90186C8.861 5.89079 8.83057 5.88249 8.79736 5.87695C8.76969 5.87142 8.75033 5.86865 8.73926 5.86865H8.21631H7.77637C7.75977 5.86865 7.72656 5.87419 7.67676 5.88525C7.62695 5.89632 7.57161 5.91016 7.51074 5.92676C7.44987 5.94336 7.39453 5.95719 7.34473 5.96826C7.29492 5.97933 7.26172 5.98486 7.24512 5.98486H7.0708C7.05973 5.99593 7.0376 6.0153 7.00439 6.04297C6.97119 6.0651 6.95459 6.08447 6.95459 6.10107C6.99886 6.23389 7.04867 6.3335 7.104 6.3999C7.15934 6.46077 7.22298 6.50505 7.29492 6.53271C7.3724 6.56038 7.45817 6.58252 7.55225 6.59912C7.64632 6.61572 7.75423 6.64062 7.87598 6.67383C7.88704 6.67383 7.90918 6.67936 7.94238 6.69043C7.97559 6.7015 8.00879 6.71533 8.04199 6.73193C8.08073 6.74854 8.1167 6.76237 8.1499 6.77344C8.18311 6.78451 8.20524 6.79004 8.21631 6.79004C8.32145 6.80111 8.4349 6.80941 8.55664 6.81494C8.68392 6.82048 8.7863 6.87028 8.86377 6.96436C8.8693 6.99202 8.87484 7.03353 8.88037 7.08887C8.8859 7.13867 8.89144 7.19401 8.89697 7.25488C8.90251 7.31576 8.90804 7.37386 8.91357 7.4292C8.91911 7.479 8.92188 7.51497 8.92188 7.53711C8.92188 7.54264 8.91911 7.56201 8.91357 7.59521C8.90804 7.62288 8.90251 7.65609 8.89697 7.69482C8.89144 7.72803 8.8859 7.764 8.88037 7.80273C8.87484 7.83594 8.8693 7.86084 8.86377 7.87744C8.85824 7.88851 8.8444 7.91895 8.82227 7.96875C8.80566 8.01855 8.79736 8.05176 8.79736 8.06836C8.79736 8.07389 8.8029 8.09049 8.81396 8.11816C8.83057 8.14583 8.84717 8.17627 8.86377 8.20947C8.88037 8.23714 8.89421 8.26758 8.90527 8.30078C8.91634 8.32845 8.92188 8.34782 8.92188 8.35889C8.92188 8.36442 8.91911 8.38656 8.91357 8.42529C8.90804 8.46403 8.89974 8.50553 8.88867 8.5498C8.88314 8.59408 8.8776 8.63558 8.87207 8.67432C8.86654 8.71305 8.86377 8.73519 8.86377 8.74072C8.86377 8.77393 8.85547 8.84863 8.83887 8.96484C8.8278 9.08105 8.81396 9.20557 8.79736 9.33838C8.7863 9.46566 8.77246 9.58464 8.75586 9.69531C8.74479 9.80599 8.73926 9.87516 8.73926 9.90283C8.73926 9.9139 8.73372 9.9388 8.72266 9.97754C8.71159 10.0107 8.70052 10.0467 8.68945 10.0854C8.67839 10.1242 8.66732 10.1602 8.65625 10.1934C8.64518 10.2266 8.63965 10.2459 8.63965 10.2515C8.58431 10.4894 8.54834 10.7329 8.53174 10.9819C8.51514 11.231 8.50684 11.48 8.50684 11.729V12.2603C8.50684 12.2824 8.5179 12.3239 8.54004 12.3848C8.56771 12.4456 8.58154 12.4816 8.58154 12.4927C8.58154 12.6864 8.55941 12.8911 8.51514 13.1069L8.39062 13.7129C8.39062 13.724 8.38509 13.7489 8.37402 13.7876C8.36296 13.8263 8.35189 13.8678 8.34082 13.9121C8.32975 13.9564 8.31869 13.9979 8.30762 14.0366C8.29655 14.0754 8.29102 14.1003 8.29102 14.1113V14.2607V14.6343C8.27995 14.6564 8.26611 14.7062 8.24951 14.7837C8.23844 14.8612 8.22738 14.9054 8.21631 14.9165C8.21631 14.9497 8.21354 15.005 8.20801 15.0825C8.20247 15.16 8.19417 15.243 8.18311 15.3315C8.17757 15.4146 8.17204 15.4948 8.1665 15.5723C8.16097 15.6442 8.1582 15.694 8.1582 15.7217C8.14714 15.7383 8.125 15.7632 8.0918 15.7964L7.98389 15.9043C7.95068 15.943 7.91748 15.979 7.88428 16.0122C7.85661 16.0454 7.83447 16.0648 7.81787 16.0703C7.8068 16.0758 7.78744 16.0869 7.75977 16.1035C7.73763 16.1146 7.71826 16.1257 7.70166 16.1367C7.67399 16.1367 7.62142 16.134 7.54395 16.1284C7.46647 16.1229 7.38623 16.1201 7.30322 16.1201C7.21468 16.1201 7.12891 16.1229 7.0459 16.1284C6.96289 16.134 6.90755 16.1367 6.87988 16.1367C6.78581 16.1367 6.69727 16.181 6.61426 16.2695C6.53678 16.3581 6.49805 16.4577 6.49805 16.5684C6.49805 16.5739 6.50635 16.596 6.52295 16.6348C6.53955 16.6735 6.55892 16.7178 6.58105 16.7676C6.60319 16.8118 6.62533 16.8534 6.64746 16.8921C6.67513 16.9253 6.70003 16.9419 6.72217 16.9419Z" fill="url(#paint0_linear_1_34)"/>
<defs>
<linearGradient id="paint0_linear_1_34" x1="19.5" y1="1" x2="9.5" y2="22" gradientUnits="userSpaceOnUse">
<stop stop-color="#618CFF"/>
<stop offset="1" stop-color="#C14CFF"/>
</linearGradient>
</defs>
</svg>
